<svg xmlns="http://www.w3.org/2000/svg" baseProfile="full" version="1.1" width="310px" height="310px" style="fill: none; width: 310px; height: 310px; stroke-width: 10;"><path d="" style="stroke-width: 10; stroke-linecap: round; stroke-linejoin: round; stroke: rgb(68, 68, 68); fill: none;"></path><path d="" style="stroke-width: 10; stroke-linecap: round; stroke-linejoin: round; stroke: rgb(119, 119, 119); fill: none;"></path><path d="M170,125 A105,45 0 0,1 275,170 A0,0 0 0,1 275,170 A105,15 0 0,1 170,185 M170,155 A105,15 0 0,1 275,170 M170,125 L170,125 L155,155 L155,155 L155,155 L170,155 L155,155 M170,185 L170,185 L155,155 M170,125 A60,45 0 0,0 110,80 A0,0 0 0,0 110,80 A90,135 0 0,0 20,215 M170,185 A30,30 0 0,0 140,215 M125,110 A15,15 0 0,0 110,125 A15,15 0 0,0 125,140 A15,15 0 0,0 140,125 A15,15 0 0,0 125,110 " style="stroke-width: 10; stroke-linecap: round; stroke-linejoin: round; stroke: rgb(0, 0, 0); fill: none;"></path></svg>